<?xml version="1.0" encoding="utf-8"?>
<!-- Generator: Adobe Illustrator 23.0.6, SVG Export Plug-In . SVG Version: 6.00 Build 0)  -->
<svg version="1.1" id="圖層_1" xmlns="http://www.w3.org/2000/svg" xmlns:xlink="http://www.w3.org/1999/xlink" x="0px" y="0px"
	 viewBox="0 0 24 24" enable-background="new 0 0 24 24" xml:space="preserve">
<g>
	<path fill="#14191D" d="M4,6.4c1.2,0,2.4-0.8,2.8-1.9h15.7v-2H6.8C6.2,1,4.6,0.2,3.1,0.7C1.9,1.1,1.1,2.2,1.1,3.5
		C1.1,5.1,2.4,6.4,4,6.4z M2.1,3.5c0-1.1,0.8-1.9,1.9-1.9c0,0,0,0,0,0c1.1,0.1,1.9,1,1.8,2.1C5.7,4.6,5,5.3,4,5.4
		C2.9,5.4,2.1,4.5,2.1,3.5C2.1,3.5,2.1,3.5,2.1,3.5z"/>
	<path fill="#14191D" d="M22.7,19.5c-0.4-1.2-1.5-1.9-2.8-1.9c-1.2,0-2.3,0.8-2.8,1.9H1.6v2h15.5c0.6,1.5,2.2,2.3,3.8,1.8
		S23.2,21.1,22.7,19.5z M19.9,22.5C19.9,22.5,19.9,22.5,19.9,22.5c-1.1,0-2-0.9-2-1.9c0-1.1,0.9-1.9,1.9-1.9c1.1,0,1.9,0.9,1.9,1.9
		C21.9,21.6,21,22.5,19.9,22.5z"/>
	<path fill="#14191D" d="M9.4,12.3c0.4,1.6,2,2.5,3.5,2.2c1-0.2,1.7-0.9,2.1-1.9h7.5v-2H15c-0.5-1.5-2.2-2.3-3.7-1.8
		c-0.9,0.3-1.6,1.1-1.9,2.1v-0.3h-8v2h8L9.4,12.3z M10.3,11.6c0-1.1,0.9-1.9,1.9-1.9c1.1,0,1.9,0.9,1.9,1.9c0,1.1-0.9,1.9-1.9,1.9
		C11.1,13.5,10.3,12.7,10.3,11.6C10.3,11.6,10.3,11.6,10.3,11.6z"/>
</g>
</svg>
