<?xml version="1.0" encoding="utf-8"?>
<!-- Generator: Adobe Illustrator 23.0.6, SVG Export Plug-In . SVG Version: 6.00 Build 0)  -->
<svg version="1.1" id="圖層_1" xmlns="http://www.w3.org/2000/svg" xmlns:xlink="http://www.w3.org/1999/xlink" x="0px" y="0px"
	 viewBox="0 0 45 45" style="enable-background:new 0 0 45 45;" xml:space="preserve">
<style type="text/css">
	.st0{fill:#14191D;}
	.st1{fill:#E7EBEC;}
</style>
<title>資產 35</title>
<g>
	<g id="圖層_3">
		<rect y="0" class="st0" width="45" height="45"/>
		<g>
			<path class="st1" d="M25,11.4l1.4,1.5l-16.2,16l0,0L10,29.1c-0.3,0.3-2.7,2.4-2.3,5.2c-0.3,0.5-0.9,1.5-1.1,1.9
				c-0.3,0.6-0.2,1.3,0.3,1.8c0.3,0.3,0.7,0.5,1.2,0.5c0.3,0,0.5-0.1,0.8-0.1c0.4-0.1,0.8-0.3,1.2-0.6c0.3-0.2,0.4-0.3,1.4-0.3
				c2.2,0,2.8-0.5,4.8-2.7L32.3,19l1.3,1.4l3.6-3.6L28.4,8L25,11.4z M22.3,26.8l-8.1,0.1l13.2-13l3.9,4.1L22.3,26.8z"/>
			<path class="st1" d="M34.2,6.6l-2.7,2.7l4.3,4.3l2.7-2.7C38.4,10.9,39.4,5.6,34.2,6.6z"/>
		</g>
	</g>
</g>
</svg>
