<svg xmlns="http://www.w3.org/2000/svg" viewBox="0 0 45 45"><defs><style>.cls-1{fill:#fff;}.cls-2,.cls-3,.cls-4{fill:#14191d;}.cls-3{opacity:0;}.cls-4{isolation:isolate;}</style></defs><title>資產 39</title><g id="圖層_2" data-name="圖層 2"><g id="圖層_3" data-name="圖層 3"><rect class="cls-1" x="0.5" y="0.5" width="44" height="44" rx="3.5"/><path class="cls-2" d="M41,1a3,3,0,0,1,3,3V41a3,3,0,0,1-3,3H4a3,3,0,0,1-3-3V4A3,3,0,0,1,4,1H41m0-1H4A4,4,0,0,0,0,4V41a4,4,0,0,0,4,4H41a4,4,0,0,0,4-4V4a4,4,0,0,0-4-4Z"/><rect class="cls-3" x="10.5" y="10.5" width="24" height="24"/><path class="cls-4" d="M28.11,12.9H27.9a5.91,5.91,0,0,0-5.4,3.6,5.91,5.91,0,0,0-5.4-3.6,5.3,5.3,0,0,0-5.4,5.19v.21c0,4.24,4.55,7.51,10.8,13.8,6.25-6.29,10.8-9.56,10.8-13.8A5.3,5.3,0,0,0,28.11,12.9Z"/></g></g></svg>