<?xml version="1.0" encoding="utf-8"?>
<!-- Generator: Adobe Illustrator 24.0.1, SVG Export Plug-In . SVG Version: 6.00 Build 0)  -->
<svg version="1.1" id="圖層_1" xmlns="http://www.w3.org/2000/svg" xmlns:xlink="http://www.w3.org/1999/xlink" x="0px" y="0px"
	 viewBox="0 0 16 16" style="enable-background:new 0 0 16 16;" xml:space="preserve">
<style type="text/css">
	.st0{fill-rule:evenodd;clip-rule:evenodd;fill:#EEC84D;}
</style>
<path id="Path_51" class="st0" d="M16,7.4v1.5h-1.5v1.5H13V8.8h-1.5V7.4H13V5.9h1.5v1.5H16z M5.1,7.4h4.8c0,0.3,0.1,0.5,0.1,0.8
	c0.2,2.6-1.8,4.8-4.4,5c0,0,0,0,0,0c-0.2,0-0.3,0-0.5,0c-2.9,0-5.3-2.2-5.3-5.1S2.2,2.8,5.1,3c1.3,0,2.5,0.4,3.4,1.3L7.1,5.7
	c-0.5-0.5-1.2-0.8-2-0.8c-1.8,0-3.2,1.4-3.2,3.2c0,1.7,1.4,3.2,3.1,3.2h0.1c1.4,0.1,2.6-0.8,2.9-2.2H5.1V7.4z"/>
</svg>
