<svg xmlns="http://www.w3.org/2000/svg" xmlns:xlink="http://www.w3.org/1999/xlink" viewBox="0 0 24 24"><defs><style>.cls-1{fill:none;}.cls-2{fill:#b8926b;}.cls-3{clip-path:url(#clip-path);}.cls-4{fill:#fff;fill-rule:evenodd;}</style><clipPath id="clip-path"><rect class="cls-1" x="4" y="4" width="16" height="16"/></clipPath></defs><title>資產 14</title><g id="圖層_2" data-name="圖層 2"><g id="圖層_3" data-name="圖層 3"><circle class="cls-2" cx="12" cy="12" r="12"/><g class="cls-3"><g id="Google_plus" data-name="Google plus"><rect id="Rectangle_121" data-name="Rectangle 121" class="cls-1" x="4" y="4" width="16" height="16"/><path id="Path_51" data-name="Path 51" class="cls-4" d="M20,11.4v1.5H18.5v1.5H17V12.8H15.5V11.4H17V9.9h1.5v1.5Zm-10.9,0h4.8c0,.3.1.5.1.8a4.69,4.69,0,0,1-4.39,5,2.9,2.9,0,0,1-.51,0A5.1,5.1,0,0,1,9.1,7a4.92,4.92,0,0,1,3.4,1.3L11.1,9.7a2.63,2.63,0,0,0-2-.8,3.22,3.22,0,0,0-3.2,3.2A3.16,3.16,0,0,0,9,15.3H9.1A2.72,2.72,0,0,0,12,13.1H9.1Z"/></g></g></g></g></svg>