<svg xmlns="http://www.w3.org/2000/svg" xmlns:xlink="http://www.w3.org/1999/xlink" viewBox="0 0 24 24"><defs><style>.cls-1{fill:none;}.cls-2{fill:#b8926b;}.cls-3{clip-path:url(#clip-path);}.cls-4{fill:#fff;fill-rule:evenodd;}</style><clipPath id="clip-path"><rect class="cls-1" x="4" y="4" width="16" height="16"/></clipPath></defs><title>資產 17</title><g id="圖層_2" data-name="圖層 2"><g id="圖層_3" data-name="圖層 3"><circle class="cls-2" cx="12" cy="12" r="12"/><g class="cls-3"><g id="Instagram"><path id="Path_3" data-name="Path 3" class="cls-4" d="M12,5.42a24.39,24.39,0,0,1,3.2.09,4.08,4.08,0,0,1,1.51.27,3.08,3.08,0,0,1,1.51,1.51,4.08,4.08,0,0,1,.27,1.51c0,.8.09,1.07.09,3.2a24.39,24.39,0,0,1-.09,3.2,4.08,4.08,0,0,1-.27,1.51,3.08,3.08,0,0,1-1.51,1.51,4.08,4.08,0,0,1-1.51.27c-.8,0-1.07.09-3.2.09a24.39,24.39,0,0,1-3.2-.09,4.08,4.08,0,0,1-1.51-.27,3.08,3.08,0,0,1-1.51-1.51,4.08,4.08,0,0,1-.27-1.51c0-.8-.09-1.07-.09-3.2a24.39,24.39,0,0,1,.09-3.2,4.08,4.08,0,0,1,.27-1.51A3,3,0,0,1,6.4,6.4a1.52,1.52,0,0,1,.89-.62A4.08,4.08,0,0,1,8.8,5.51,24.39,24.39,0,0,1,12,5.42M12,4a25.78,25.78,0,0,0-3.29.09,5.61,5.61,0,0,0-2,.35A3.71,3.71,0,0,0,4.44,6.76a4.08,4.08,0,0,0-.35,2A25.78,25.78,0,0,0,4,12a25.78,25.78,0,0,0,.09,3.29,5.61,5.61,0,0,0,.35,1.95,3.71,3.71,0,0,0,2.32,2.32,5.61,5.61,0,0,0,2,.35A25.83,25.83,0,0,0,12,20a25.78,25.78,0,0,0,3.29-.09,5.61,5.61,0,0,0,1.95-.35,3.76,3.76,0,0,0,2.32-2.32,5.61,5.61,0,0,0,.35-1.95c0-.89.09-1.16.09-3.29a25.78,25.78,0,0,0-.09-3.29,5.61,5.61,0,0,0-.35-2,3.71,3.71,0,0,0-2.32-2.32,5.61,5.61,0,0,0-1.95-.35A25.78,25.78,0,0,0,12,4m0,3.91a4,4,0,0,0-4.09,4V12A4.09,4.09,0,1,0,12,7.91h0m0,6.76A2.63,2.63,0,0,1,9.33,12.1V12A2.63,2.63,0,0,1,11.9,9.33H12a2.63,2.63,0,0,1,2.67,2.57V12a2.63,2.63,0,0,1-2.57,2.67H12m4.27-7.91a1,1,0,1,0,1,1h0a1,1,0,0,0-1-1"/></g></g></g></g></svg>