<?xml version="1.0" encoding="utf-8"?>
<!-- Generator: Adobe Illustrator 24.0.1, SVG Export Plug-In . SVG Version: 6.00 Build 0)  -->
<svg version="1.1" id="圖層_1" xmlns="http://www.w3.org/2000/svg" xmlns:xlink="http://www.w3.org/1999/xlink" x="0px" y="0px"
	 viewBox="0 0 16 16" style="enable-background:new 0 0 16 16;" xml:space="preserve">
<style type="text/css">
	.st0{fill-rule:evenodd;clip-rule:evenodd;fill:#B8926B;}
</style>
<path id="Path_3" class="st0" d="M8,1.4c1.1,0,2.1,0,3.2,0.1c0.5,0,1,0.1,1.5,0.3c0.7,0.3,1.2,0.9,1.5,1.5c0.2,0.5,0.3,1,0.3,1.5
	c0,0.8,0.1,1.1,0.1,3.2c0,1.1,0,2.1-0.1,3.2c0,0.5-0.1,1-0.3,1.5c-0.3,0.7-0.8,1.2-1.5,1.5c-0.5,0.2-1,0.3-1.5,0.3
	c-0.8,0-1.1,0.1-3.2,0.1c-1.1,0-2.1,0-3.2-0.1c-0.5,0-1-0.1-1.5-0.3c-0.7-0.3-1.2-0.8-1.5-1.5c-0.2-0.5-0.3-1-0.3-1.5
	c0-0.8-0.1-1.1-0.1-3.2c0-1.1,0-2.1,0.1-3.2c0-0.5,0.1-1,0.3-1.5C1.9,3,2.1,2.7,2.4,2.4c0.2-0.3,0.5-0.5,0.9-0.6
	c0.5-0.2,1-0.3,1.5-0.3C5.9,1.4,6.9,1.4,8,1.4 M8,0C6.9,0,5.8,0,4.7,0.1c-0.7,0-1.4,0.1-2,0.3c-0.5,0.2-1,0.5-1.4,0.9
	C0.9,1.7,0.6,2.2,0.5,2.8c-0.3,0.6-0.4,1.3-0.3,2C0,5.8,0,6.9,0,8c0,1.1,0,2.2,0.1,3.3c0,0.7,0.1,1.3,0.3,1.9c0.2,0.5,0.5,1,0.9,1.4
	c0.4,0.4,0.9,0.7,1.4,0.9c0.6,0.2,1.3,0.4,2,0.4C5.8,16,6.9,16,8,16c1.1,0,2.2,0,3.3-0.1c0.7,0,1.3-0.1,1.9-0.4
	c1.1-0.4,1.9-1.2,2.3-2.3c0.2-0.6,0.4-1.3,0.4-2c0-0.9,0.1-1.1,0.1-3.3c0-1.1,0-2.2-0.1-3.3c0-0.7-0.1-1.4-0.4-2
	c-0.2-0.5-0.5-1-0.9-1.4c-0.4-0.4-0.9-0.6-1.4-0.8c-0.6-0.2-1.3-0.4-1.9-0.3C10.2,0,9.1,0,8,0 M8,3.9c-2.2,0-4,1.7-4.1,3.9
	c0,0,0,0.1,0,0.1V8c0,2.3,1.8,4.1,4.1,4.1c2.3,0,4.1-1.8,4.1-4.1C12.1,5.8,10.3,3.9,8,3.9C8,3.9,8,3.9,8,3.9L8,3.9 M8,10.7
	c-1.4,0-2.6-1.1-2.7-2.6V8c0-1.4,1.1-2.6,2.6-2.7H8c1.4,0,2.6,1.1,2.7,2.6c0,0,0,0,0,0V8c0,1.4-1.1,2.6-2.6,2.7
	C8.1,10.7,8.1,10.7,8,10.7L8,10.7 M12.3,2.7c-0.6,0-1,0.4-1,1s0.4,1,1,1s1-0.4,1-1l0,0C13.3,3.2,12.8,2.7,12.3,2.7"/>
</svg>
