<svg xmlns="http://www.w3.org/2000/svg" viewBox="0 0 751.73 172.61"><defs><style>.cls-1{font-size:40px;font-family:MicrosoftJhengHeiBold, Microsoft JhengHei;letter-spacing:0.53em;}</style></defs><title>資產 12</title><g id="圖層_2" data-name="圖層 2"><g id="圖層_3" data-name="圖層 3"><path d="M134,134.68s34.4,8.31,39.14-32c0,0-14.23-5.94-24.91,2.37,0,0,3.56-13,2.37-16.61,0,0,26.1,1.19,17.8-47.45,0,0-38,14.24-24.91,43.89,0,11.86-3.56,49.82-56.94,73.55C33.21,134.68,29.65,96.72,29.65,84.86,42.7,55.21,4.74,41,4.74,41c-8.3,48.64,17.8,47.45,17.8,47.45C21.35,92,24.91,105,24.91,105,14.23,96.72,0,102.66,0,102.66c4.74,40.33,39.14,32,39.14,32C42.7,140.61,51,145.36,51,145.36H47.45C38,143,28.47,156,28.47,156S38,166.71,51,172.64a27.58,27.58,0,0,0,27.28-9.49c1.18,4.75,8.3,7.12,8.3,7.12s7.12-2.37,8.3-7.12a27.59,27.59,0,0,0,27.29,9.49c13-5.93,22.53-16.61,22.53-16.61s-9.49-13-19-10.67h-3.55S130.48,140.61,134,134.68Z" transform="translate(0 -0.64)"/><path d="M80.66,90.79H92.52v43.89c13.64-32.62,36.77-58.12,36.77-58.12-20.16-8.3-17.79-24.91-17.79-24.91H61.68s2.37,16.61-17.79,24.91c0,0,23.13,25.5,36.77,58.12ZM80.07,70h13V82.49h-13Z" transform="translate(0 -0.64)"/><rect x="51.01" y="20.16" width="71.17" height="22.54"/><rect x="60.49" width="11.86" height="11.86"/><rect x="80.66" width="11.86" height="11.86"/><rect x="100.82" width="11.86" height="11.86"/><path d="M236.63,24.2a18.94,18.94,0,0,0-3.13-6.67c-1.49-1.56-2.41-1.85-5.82-1.85h-5.32c-2.41,0-2.7.15-2.7,2.56V33.71h7.6c4.18,0,4.75-1.06,5.82-6h2.62V43.43H233c-.78-4.82-1.85-6-5.75-6h-7.6V48.47c0,6.53.43,7,6.82,7.45v2.63H203.77V55.92c5.39-.49,6-.92,6-7.45V22.35c0-6.31-.64-6.88-6-7.31V12.42h24.06c6.1,0,9.65-.07,10.78-.14.07,1.2.43,7.31.78,11.49Z" transform="translate(0 -0.64)"/><path d="M269.55,11.43C282.68,11.43,293.4,21,293.4,35c0,15.11-10.79,24.62-24.2,24.62-14.2,0-24.49-10.36-24.49-24.06C244.71,23.42,253.37,11.43,269.55,11.43Zm-1.06,3.12c-7.24,0-12.56,7.1-12.56,19.66,0,12,4.75,22.28,14.33,22.28,6.75,0,12-6.53,12-19.52C282.26,22.92,276.72,14.55,268.49,14.55Z" transform="translate(0 -0.64)"/><path d="M348.47,15c-4.54.43-5.75,1.78-6,4.33a87.86,87.86,0,0,0-.36,9.51v9.3c0,6.1-1,12.28-5,16.54-3.26,3.4-8.3,4.89-13.34,4.89-4.68,0-9.37-1-12.7-3.69-4.12-3.12-6.11-7.45-6.11-15.4v-18c0-6.53-.63-7-6-7.53V12.42h21.93V15c-5.32.5-6,1-6,7.53V41.45c0,7.94,3.9,13.2,11.5,13.2,8.44,0,12.13-6.25,12.13-16.9V28.88c0-4.89-.21-7.45-.35-9.58-.29-3.26-2.27-4-7.24-4.26V12.42h17.6Z" transform="translate(0 -0.64)"/><path d="M401.48,15c-4.33.57-5.68,1.5-5.89,4.69-.21,2.77-.42,5.18-.42,11.35V59.33h-4L361.6,23.84v16a109.06,109.06,0,0,0,.35,11c.29,3.13,1.78,4.76,7,5v2.63h-17.6V55.92c4-.35,5.82-1.42,6.24-4.75a93.9,93.9,0,0,0,.43-11.29V23.06c0-2.34-.14-3.9-1.49-5.74s-3-2-6-2.28V12.42h13.84l27,31.44V31.08c0-6.17-.07-8.51-.28-11.14C391,16.89,389.84,15.4,384,15V12.42h17.53Z" transform="translate(0 -0.64)"/><path d="M446.19,24.7a21.92,21.92,0,0,0-3.05-7c-1.28-1.49-1.85-2.06-6-2.06h-4.55V49c0,6,.71,6.39,7,6.88v2.63H416V55.92c6-.49,6.67-.92,6.67-6.88V15.68h-4.33c-4,0-5.11.64-6.46,2.35A27.25,27.25,0,0,0,409,24.77h-2.69c.49-5.18,1-10.72,1.13-14.13h2.13c1.07,1.64,1.92,1.78,4.05,1.78H442a4.7,4.7,0,0,0,4.12-1.78h2.06c.07,3,.35,9.23.71,13.84Z" transform="translate(0 -0.64)"/><path d="M473.09,58.55V55.92c4.47-.64,4.47-1.42,3.48-4.47-.71-2.13-1.85-5.32-2.91-8.16H459.82c-.78,2.2-1.78,4.9-2.49,7.1-1.49,4.47.22,5,5.82,5.53v2.63H445.62V55.92c4.47-.56,5.61-1.2,8-7.17L468.4,12.06l3.41-.63c4.54,12.34,9.37,25,14,36.83,2.63,6.6,3.27,7.1,7.88,7.66v2.63Zm-6.25-33.92c-2.06,5.11-4,9.86-5.82,15h11.29Z" transform="translate(0 -0.64)"/><path d="M496.22,58.55V55.92c5.4-.49,6-.92,6-6.88V22c0-6-.71-6.53-6-7V12.42h21.93V15c-5.32.5-6,1-6,7V49c0,5.89.64,6.32,6,6.88v2.63Z" transform="translate(0 -0.64)"/><path d="M573.65,15c-4.33.57-5.68,1.5-5.89,4.69-.22,2.77-.43,5.18-.43,11.35V59.33h-4l-29.6-35.49v16a107.89,107.89,0,0,0,.36,11c.28,3.13,1.77,4.76,7,5v2.63h-17.6V55.92c4.05-.35,5.82-1.42,6.25-4.75a96.14,96.14,0,0,0,.43-11.29V23.06c0-2.34-.15-3.9-1.5-5.74s-3-2-6-2.28V12.42H536.6l27,31.44V31.08c0-6.17-.07-8.51-.28-11.14-.22-3.05-1.35-4.54-7.24-4.9V12.42h17.53Z" transform="translate(0 -0.64)"/><path d="M613.25,12.42c5.6,0,9.86,1,12.77,2.91A11.88,11.88,0,0,1,631.56,26c0,10.29-8.73,14.62-16.33,14.7a17.89,17.89,0,0,1-2.13-.15L609,39.46v9.65c0,6,.5,6.25,6.67,6.81v2.63H593.09V55.92c5.32-.64,6-.85,6-6.81V22c0-6-.71-6.6-6-7V12.42ZM609,36.48a9.18,9.18,0,0,0,3.76.71c3.26,0,8.59-1.92,8.59-11.29,0-7.94-4.33-10.57-8.94-10.57a4.29,4.29,0,0,0-2.77.71c-.5.42-.64,1.13-.64,2.2Z" transform="translate(0 -0.64)"/><path d="M676.2,46.48c-.36,1.92-2.35,10.08-3,12.07H636.38V56c6.46-.63,6.89-1,6.89-7V21.93c0-6-.86-6.46-5.68-6.89V12.42h23.06c7.45,0,9.94-.07,10.93-.14.07,1.27.43,7.09.71,11.49l-2.77.36c-.63-2.41-1.84-5.32-3-6.6s-2.2-1.85-5.82-1.85H656c-2.7,0-3,.15-3,2.56V33.07h7c4,0,4.69-1.06,5.75-6.1h2.77V42.79h-2.77c-1.13-5.25-1.7-6.1-5.82-6.1h-6.88V48.9c0,4.89.14,6.38,4.54,6.46h5c4,0,5-.5,6.6-2.42a32.08,32.08,0,0,0,4.33-7.09Z" transform="translate(0 -0.64)"/><path d="M729.85,15c-4.33.57-5.68,1.5-5.9,4.69-.21,2.77-.42,5.18-.42,11.35V59.33h-4L690,23.84v16a104.85,104.85,0,0,0,.36,11c.28,3.13,1.77,4.76,7,5v2.63h-17.6V55.92c4-.35,5.82-1.42,6.25-4.75a96.88,96.88,0,0,0,.42-11.29V23.06c0-2.34-.14-3.9-1.49-5.74s-3-2-6-2.28V12.42H692.8l27,31.44V31.08c0-6.17-.07-8.51-.28-11.14-.22-3.05-1.35-4.54-7.24-4.9V12.42h17.53Z" transform="translate(0 -0.64)"/><path d="M203.77,72.42h21.5V75c-5.11.64-5.89,1-5.89,7V93.92c1.49-.42,3.19-1.56,5.54-3.76A116.91,116.91,0,0,0,235,78.88c1.71-2.2,1.28-3.27-2-3.69L231.66,75V72.42h18.59V75c-4.9.64-7.52,1-12,5.82-2.77,2.91-6.25,6.46-9.37,9.87,4.47,6.24,10,13.84,15.47,20.72,2.63,3.41,3.55,3.91,7.17,4.47v2.63H237.41c-3-4-9.23-12.63-14.27-19.8-1.49-2.13-2.62-2.56-3.76-2.34V109c0,6,.5,6.24,6,7v2.63H203.77v-2.63c5.32-.56,6-.92,6-7V82c0-6-.71-6.46-6-7Z" transform="translate(0 -0.64)"/><path d="M282.47,118.55v-2.63c5.39-.49,6-.92,6-6.88V82c0-6-.71-6.53-6-7V72.42H304.4V75c-5.32.5-6,1-6,7v27c0,5.89.64,6.32,6,6.88v2.63Z" transform="translate(0 -0.64)"/><path d="M388.28,75c-4.33.57-5.68,1.5-5.89,4.69-.21,2.77-.42,5.18-.42,11.35v28.25h-4L348.4,83.84v16a109.06,109.06,0,0,0,.35,11c.29,3.13,1.78,4.76,7,5v2.63h-17.6v-2.63c4-.35,5.82-1.42,6.24-4.75a93.9,93.9,0,0,0,.43-11.29V83.06c0-2.34-.14-3.9-1.49-5.74s-3-2-6-2.28V72.42h13.84l27,31.44V91.08c0-6.17-.08-8.51-.29-11.14-.21-3-1.35-4.54-7.24-4.9V72.42h17.53Z" transform="translate(0 -0.64)"/><path d="M469,99.1c-4,.71-4.54,1-4.54,5.82v5.47a39.57,39.57,0,0,0,.43,6.88c-3.62.64-11.43,2.34-17.18,2.34-16.68,0-26.26-10.15-26.26-24.2,0-16,13-24,28.11-24,5.75,0,12,1.41,14.33,1.63.14,3.12.71,8.51,1.21,12.42L462.3,86c-1.7-6-4.33-9.08-8.73-10.57a21.28,21.28,0,0,0-6-.85c-8.59,0-15.05,7.45-15.05,19.66,0,12.49,4.4,22.35,16,22.35a9.27,9.27,0,0,0,4.55-1c1.06-.64,1.63-1.85,1.63-4v-6.24c0-5-1-5.47-7-6.18V96.48H469Z" transform="translate(0 -0.64)"/><path d="M524.11,72.42c9.09,0,15.76,1.91,20.3,6.17,3.62,3.34,6.39,8.31,6.39,15.47,0,8.17-3.41,14.41-8.87,18.53-5.25,4-12,6-20.09,6H502.33v-2.63c5.39-.42,6-1.06,6-7V82c0-6-.78-6.53-6-7V72.42Zm-5.89,36.05c0,5,1.28,6.74,6.46,6.74,9.58,0,15.12-6.67,15.12-20.08,0-6.74-1.85-12.63-5.11-15.68-3-3-6.67-4-11.43-4-2.62,0-3.83.57-4.26,1-.63.64-.78,1.85-.78,3.91Z" transform="translate(0 -0.64)"/><path d="M611.4,71.43c13.13,0,23.85,9.58,23.85,23.56,0,15.11-10.79,24.62-24.2,24.62-14.19,0-24.49-10.36-24.49-24.06C586.56,83.42,595.22,71.43,611.4,71.43Zm-1.06,3.12c-7.24,0-12.56,7.1-12.56,19.66,0,12,4.75,22.28,14.33,22.28,6.75,0,12-6.53,12-19.52C624.11,82.92,618.57,74.55,610.34,74.55Z" transform="translate(0 -0.64)"/><path d="M706.93,118.55v-2.63c5.39-.56,5.74-1.06,5.74-7.45l-.07-27.68c-5.11,12.21-10.71,25.69-15.82,37.76h-2.34c-4.62-11.57-9.66-24.77-14.77-37.19-.92,22.29-.92,26.69-.92,29.24.07,3.83,1.49,4.83,6.81,5.32v2.63H668v-2.63c4-.35,5.89-1.13,6.46-5.39.29-2.13.57-6.17,2.2-29.59.21-3.41-.28-5.33-6.38-5.9V72.42h15.32l13.7,31.3L713,72.42h15V75c-5.67.57-6.31,1.14-6.17,6.82l.57,26.61c.07,6.39.35,6.67,6.1,7.45v2.63Z" transform="translate(0 -0.64)"/><text class="cls-1" transform="translate(200.93 162.16)">鋼筆品牌代理專賣店</text></g></g></svg>