<svg xmlns="http://www.w3.org/2000/svg" viewBox="0 0 542.61 179.4"><title>資產 13</title><g id="圖層_2" data-name="圖層 2"><g id="圖層_3" data-name="圖層 3"><path d="M139.31,139.31S175.06,147.94,180,106c0,0-14.79-6.16-25.89,2.47,0,0,3.7-13.56,2.47-17.26,0,0,27.12,1.23,18.49-49.31,0,0-39.45,14.79-25.89,45.61,0,12.33-3.7,51.78-59.17,76.44C34.52,139.31,30.82,99.86,30.82,87.53,44.38,56.71,4.93,41.92,4.93,41.92-3.7,92.46,23.42,91.23,23.42,91.23c-1.23,3.7,2.47,17.26,2.47,17.26C14.79,99.86,0,106,0,106c4.93,41.92,40.68,33.29,40.68,33.29,3.7,6.16,12.33,11.1,12.33,11.1h-3.7c-9.86-2.47-19.72,11.09-19.72,11.09S39.45,172.6,53,178.76a28.68,28.68,0,0,0,28.36-9.86c1.23,4.93,8.63,7.39,8.63,7.39s7.39-2.46,8.63-7.39A28.66,28.66,0,0,0,127,178.76c13.56-6.16,23.43-17.26,23.43-17.26s-9.87-13.56-19.73-11.09H127S135.61,145.47,139.31,139.31Z"/><path d="M83.83,93.7H96.16v45.61c14.18-33.9,38.22-60.41,38.22-60.41C113.42,70.27,115.89,53,115.89,53H64.11s2.46,17.26-18.5,25.89c0,0,24,26.51,38.22,60.41Zm-.61-21.58H96.78V85.07H83.22Z"/><rect x="53.01" y="20.96" width="73.97" height="23.42"/><rect x="62.87" width="12.33" height="12.33"/><rect x="83.83" width="12.33" height="12.33"/><rect x="104.79" width="12.33" height="12.33"/><path d="M286.39,91.2c-2-6.92-4.92-13.67-8-17.13-3.83-4-6.2-4.74-14.95-4.74H249.77c-6.2,0-6.93.37-6.93,6.56v39.73h19.5c10.75,0,12.21-2.73,14.94-15.49H284v40.46H277.1c-2-12.4-4.74-15.5-14.76-15.5h-19.5v28.43c0,16.77,1.09,18,17.49,19.14v6.74H202v-6.74c13.85-1.28,15.49-2.37,15.49-19.14V86.46c0-16.22-1.64-17.67-15.49-18.77V61H263.8c15.67,0,24.78-.18,27.7-.36.18,3.09,1.09,18.77,2,29.52Z"/><path d="M358.38,61c14.39,0,25.33,2.55,32.8,7.47,9.11,6,14.21,14.76,14.21,27.34,0,26.42-22.41,37.54-41.91,37.72a44.14,44.14,0,0,1-5.47-.37l-10.57-2.73v24.78c0,15.31,1.28,16,17.13,17.5v6.74H306.62v-6.74c13.67-1.64,15.49-2.19,15.49-17.5V85.55c0-15.31-1.82-17-15.49-17.86V61Zm-10.94,61.78a23.42,23.42,0,0,0,9.66,1.82c8.38,0,22-4.92,22-29,0-20.41-11.11-27.15-23-27.15-3.83,0-6,.91-7.11,1.82-1.27,1.1-1.64,2.92-1.64,5.65Z"/><path d="M420,61h55.22v6.74c-13.12,1.64-15.13,2.55-15.13,17.86v30.62c3.83-1.1,8.2-4,14.22-9.66a296.23,296.23,0,0,0,25.87-29c4.38-5.65,3.28-8.38-5.1-9.47l-3.46-.37V61h47.74v6.74c-12.57,1.64-19.31,2.55-30.79,15-7.11,7.47-16,16.58-24.06,25.33,11.48,16,25.69,35.53,39.73,53.21,6.74,8.74,9.11,10,18.4,11.48v6.74H506.35C498.69,169,482.66,147,469.72,128.56c-3.83-5.47-6.74-6.56-9.66-6V154.8c0,15.49,1.28,16,15.31,17.86v6.74H420v-6.74c13.67-1.46,15.49-2.37,15.49-17.86V85.55c0-15.31-1.82-16.58-15.49-17.86Z"/></g></g></svg>