<?xml version="1.0" encoding="utf-8"?>
<!-- Generator: Adobe Illustrator 23.0.6, SVG Export Plug-In . SVG Version: 6.00 Build 0)  -->
<svg version="1.1" id="圖層_1" xmlns="http://www.w3.org/2000/svg" xmlns:xlink="http://www.w3.org/1999/xlink" x="0px" y="0px"
	 viewBox="0 0 45 45" style="enable-background:new 0 0 45 45;" xml:space="preserve">
<style type="text/css">
	.st0{fill:#14191D;}
	.st1{fill:#E7EBEC;}
</style>
<title>資產 36</title>
<g>
	<g id="圖層_3">
		<rect y="0" class="st0" width="45" height="45"/>
		<g>
			<path class="st1" d="M16.9,7.5L4.5,30.3h19.7L36.6,7.5H16.9z M23.9,20c-0.2,0.3-0.6,0.6-1,0.6H12c-0.4,0-0.5-0.3-0.3-0.6
				c0.2-0.4,0.6-0.6,1-0.6h10.9C24,19.4,24.1,19.7,23.9,20L23.9,20z M29.5,17c-0.2,0.4-0.6,0.6-1,0.6H13.7c-0.4,0-0.5-0.3-0.3-0.6
				c0.2-0.4,0.6-0.6,1-0.6h14.8C29.6,16.4,29.7,16.7,29.5,17z M31.3,14c-0.2,0.4-0.6,0.6-1,0.6H15.5c-0.4,0-0.5-0.3-0.3-0.6
				c0.2-0.4,0.6-0.6,1-0.6H31C31.3,13.3,31.4,13.6,31.3,14z M32,11.5H17.2c-0.4,0-0.5-0.3-0.3-0.6c0.2-0.4,0.6-0.6,1-0.6h14.8
				c0.4,0,0.5,0.3,0.3,0.6C32.8,11.3,32.4,11.5,32,11.5z"/>
			<polygon class="st1" points="12.8,34 25.9,34 35.4,16.7 40.5,16.7 28.8,37.5 10.6,37.5 			"/>
		</g>
	</g>
</g>
</svg>
