<?xml version="1.0" encoding="utf-8"?>
<!-- Generator: Adobe Illustrator 23.0.6, SVG Export Plug-In . SVG Version: 6.00 Build 0)  -->
<svg version="1.1" id="圖層_1" xmlns="http://www.w3.org/2000/svg" xmlns:xlink="http://www.w3.org/1999/xlink" x="0px" y="0px"
	 viewBox="0 0 45 45" style="enable-background:new 0 0 45 45;" xml:space="preserve">
<style type="text/css">
	.st0{fill:#14191D;}
	.st1{fill:#E7EBEC;}
</style>
<title>資產 33</title>
<g>
	<g id="圖層_3">
		<rect y="0" class="st0" width="45" height="45"/>
		<path class="st1" d="M20.8,34.8l-1.4-0.4c-0.9-0.3-1.9-0.6-2.7-1.2c-0.9-0.5-1.7-1.2-2.4-1.9l2.3-2.8c0.7,0.9,1.6,1.6,2.6,2.2
			c1,0.5,2.1,0.7,3.2,0.7c1.3,0.1,2.5-0.2,3.6-0.9c0.8-0.7,1.2-1.7,1.2-2.8l0,0c0-0.7-0.2-1.3-0.6-1.9c-0.4-0.5-0.9-0.8-1.5-1
			c-0.7-0.3-1.5-0.5-2.3-0.6h-0.1h-0.1h-0.2h-0.2c-1.2-0.2-2.4-0.5-3.6-0.9c-1-0.4-1.8-1-2.4-1.9c-0.7-1.1-1.1-2.5-1-3.8l0,0
			c0-1.4,0.3-2.8,0.9-4c0.6-1.1,1.5-2,2.6-2.6c1.4-0.6,2.9-0.8,4.4-0.8c1.6,0,3.1,0.3,4.5,1c0.8,0.3,1.5,0.7,2.2,1.2l-2,2.8
			c-0.8-0.5-1.6-0.9-2.5-1.2c-0.7-0.3-1.5-0.4-2.3-0.4c-1.2-0.1-2.3,0.2-3.3,0.9c-0.8,0.7-1.2,1.7-1.1,2.7l0,0c0,0.7,0.2,1.4,0.6,2
			c0.4,0.5,1,0.8,1.6,1c0.9,0.3,1.7,0.5,2.6,0.7h0.1H24h0.2h0.1c1.1,0.3,2.2,0.6,3.3,1.1c0.9,0.4,1.7,1.1,2.2,2
			c0.6,1.1,0.9,2.4,0.9,3.8l0,0c0,1.4-0.3,2.7-0.9,3.9c-0.6,1.1-1.6,1.9-2.7,2.4c-1.5,0.6-3,0.8-4.6,0.8L20.8,34.8z M21.1,7.5h3.4
			v3.8h-3.4V7.5z M21.1,33.5h3.4v4h-3.4V33.5z"/>
	</g>
</g>
</svg>
