<?xml version="1.0" encoding="utf-8"?>
<!-- Generator: Adobe Illustrator 23.0.6, SVG Export Plug-In . SVG Version: 6.00 Build 0)  -->
<svg version="1.1" id="圖層_1" xmlns="http://www.w3.org/2000/svg" xmlns:xlink="http://www.w3.org/1999/xlink" x="0px" y="0px"
	 viewBox="0 0 45 45" style="enable-background:new 0 0 45 45;" xml:space="preserve">
<style type="text/css">
	.st0{fill:#14191D;}
	.st1{fill:#E7EBEC;}
</style>
<title>資產 37</title>
<g>
	<g id="圖層_3">
		<rect y="0" class="st0" width="45" height="45"/>
		<path class="st1" d="M16.3,8.4h12.2c0,0,3.5,1.4,0,3.7H17C17,12.1,13.7,10.7,16.3,8.4z"/>
		<path class="st1" d="M37.5,28.3c0.1,2.5,0,6.6,0,6.6s0.3,1.8-2.9,1.8H9.9c-1-0.2-1.8-0.9-2.2-1.8c-0.3-0.6-0.2-4.5,0.1-6.6
			L37.5,28.3z"/>
		<path class="st1" d="M37.2,25.2c0-0.1-0.3-4.7-2.6-6.1c-2-0.9-4-1.7-6.1-2.4v-2.7H17v2.7c-1.9,0.4-3.7,1-5.4,1.7
			C10.4,19,9.5,20,9,21.1c-0.1,0.4-0.4,2-0.7,4L37.2,25.2z"/>
	</g>
</g>
</svg>
