<svg xmlns="http://www.w3.org/2000/svg" viewBox="0 0 24 24"><defs><style>.cls-1{fill:none;}</style></defs><title>資產 45</title><g id="圖層_2" data-name="圖層 2"><g id="圖層_3" data-name="圖層 3"><rect class="cls-1" width="24" height="24"/><path d="M22.81,21l-4.44-4.45A1.3,1.3,0,0,1,18.18,15a8.87,8.87,0,0,0,1.29-4.66,9.07,9.07,0,0,0-8.9-9.16h-.44a9.08,9.08,0,0,0-8.94,9v.11a9.08,9.08,0,0,0,9,9.17h.11A8.88,8.88,0,0,0,15,18.18a1.28,1.28,0,0,1,1.57.2L21,22.83Zm-6-10.83v.13a6.45,6.45,0,0,1-6.4,6.52h-.12a6.46,6.46,0,0,1-6.53-6.4v-.12a6.46,6.46,0,0,1,6.4-6.53h.13A6.45,6.45,0,0,1,16.85,10.18Z"/></g></g></svg>