<svg xmlns="http://www.w3.org/2000/svg" viewBox="0 0 24 24"><defs><style>.cls-1{fill:none;}.cls-2{fill:#b8926b;fill-rule:evenodd;isolation:isolate;}</style></defs><title>資產 40</title><g id="圖層_2" data-name="圖層 2"><g id="圖層_3" data-name="圖層 3"><rect class="cls-1" width="24" height="24"/><path id="path" class="cls-2" d="M7.92,18.12a2,2,0,1,0,2,2,2,2,0,0,0-2-2h0m10.2,0a2,2,0,1,0,2,2,2,2,0,0,0-2-2h0M3.84,1.8h-2v2h2l3.67,7.74-1.38,2.5a2,2,0,0,0,.81,2.77,2.1,2.1,0,0,0,1,.25H20.16v-2H8.35a.25.25,0,0,1-.25-.25h0l0-.13L9,13h7.6a2,2,0,0,0,1.78-1l3.65-6.62a1,1,0,0,0,.13-.49,1,1,0,0,0-1-1H6.1L5.68,3A2,2,0,0,0,3.84,1.8"/></g></g></svg>