<?xml version="1.0" encoding="utf-8"?>
<!-- Generator: Adobe Illustrator 23.0.6, SVG Export Plug-In . SVG Version: 6.00 Build 0)  -->
<svg version="1.1" id="圖層_1" xmlns="http://www.w3.org/2000/svg" xmlns:xlink="http://www.w3.org/1999/xlink" x="0px" y="0px"
	 viewBox="0 0 24 24" enable-background="new 0 0 24 24" xml:space="preserve">
<g id="圖層_3">
	<path id="path" fill-rule="evenodd" clip-rule="evenodd" d="M7.9,18.1c-1.1,0-2,0.9-2,2s0.9,2,2,2s2-0.9,2-2S9,18.1,7.9,18.1
		L7.9,18.1 M18.1,18.1c-1.1,0-2,0.9-2,2s0.9,2,2,2s2-0.9,2-2S19.2,18.1,18.1,18.1L18.1,18.1 M3.8,1.8h-2v2h2l3.7,7.7L6.1,14
		c-0.6,1-0.2,2.2,0.7,2.7c0,0,0,0,0.1,0c0.3,0.2,0.7,0.3,1,0.3h12.2v-2H8.4c-0.1,0-0.3-0.1-0.3-0.3l0,0v-0.1L9,13h7.6
		c0.7,0,1.4-0.4,1.8-1L22,5.4c0.1-0.1,0.1-0.3,0.1-0.5c0-0.6-0.4-1-1-1H6.1L5.7,3C5.4,2.3,4.6,1.8,3.8,1.8"/>
</g>
</svg>
