<?xml version="1.0" encoding="utf-8"?>
<!-- Generator: Adobe Illustrator 24.0.1, SVG Export Plug-In . SVG Version: 6.00 Build 0)  -->
<svg version="1.1" id="圖層_1" xmlns="http://www.w3.org/2000/svg" xmlns:xlink="http://www.w3.org/1999/xlink" x="0px" y="0px"
	 viewBox="0 0 16 16" style="enable-background:new 0 0 16 16;" xml:space="preserve">
<style type="text/css">
	.st0{fill:none;}
	.st1{fill-rule:evenodd;clip-rule:evenodd;fill:#B8926B;}
</style>
<g id="Twitter">
	<rect id="Rectangle_1457" y="0" class="st0" width="16" height="16"/>
	<path id="Path_2" class="st1" d="M5.1,15c5.1,0,9.3-4.1,9.3-9.2c0,0,0,0,0,0V5.2c0.6-0.5,1.2-1,1.6-1.7c-0.6,0.2-1.2,0.4-1.9,0.5
		c0.7-0.4,1.2-1,1.4-1.8c-0.6,0.4-1.3,0.6-2.1,0.8C12.9,2.4,12,2,11.1,2C9.3,2,7.9,3.5,7.8,5.3c0,0.2,0,0.5,0.1,0.7
		C5.3,5.9,2.8,4.6,1.1,2.5C0.9,3,0.7,3.6,0.7,4.2c0,1.1,0.5,2.1,1.4,2.8C1.6,7,1.1,6.8,0.6,6.5l0,0c0,1.6,1.1,2.9,2.7,3.2
		C3,9.8,2.7,9.8,2.4,9.8c-0.2,0-0.4,0-0.6-0.1C2.2,11.1,3.5,12,4.9,12c-1.2,0.9-2.6,1.4-4.1,1.4c-0.3,0-0.5,0-0.8-0.1
		C1.5,14.5,3.2,15,5.1,15"/>
</g>
</svg>
