<svg xmlns="http://www.w3.org/2000/svg" xmlns:xlink="http://www.w3.org/1999/xlink" viewBox="0 0 24 24"><defs><style>.cls-1{fill:none;}.cls-2{fill:#b8926b;}.cls-3{clip-path:url(#clip-path);}.cls-4{fill:#fff;fill-rule:evenodd;}</style><clipPath id="clip-path"><rect class="cls-1" x="4" y="4" width="16" height="16"/></clipPath></defs><title>資產 15</title><g id="圖層_2" data-name="圖層 2"><g id="圖層_3" data-name="圖層 3"><circle class="cls-2" cx="12" cy="12" r="12"/><g class="cls-3"><g id="Twitter"><rect id="Rectangle_1457" data-name="Rectangle 1457" class="cls-1" x="4" y="4" width="16" height="16"/><path id="Path_2" data-name="Path 2" class="cls-4" d="M9.07,19A9.25,9.25,0,0,0,18.4,9.81V9.2A7.14,7.14,0,0,0,20,7.51,7.14,7.14,0,0,1,18.13,8a3.47,3.47,0,0,0,1.43-1.77,8.82,8.82,0,0,1-2,.8A3.15,3.15,0,0,0,15.11,6a3.35,3.35,0,0,0-3.29,3.29,1.72,1.72,0,0,0,.09.71A9.19,9.19,0,0,1,5.15,6.53a3.46,3.46,0,0,0-.44,1.69A3.53,3.53,0,0,0,6.13,11a3,3,0,0,1-1.51-.45h0a3.24,3.24,0,0,0,2.67,3.2,2.67,2.67,0,0,1-.89.09,1.32,1.32,0,0,1-.62-.09,3.37,3.37,0,0,0,3.11,2.32A6.74,6.74,0,0,1,4.8,17.47a2.69,2.69,0,0,1-.8-.09A8.38,8.38,0,0,0,9.07,19"/></g></g></g></g></svg>